<?xml version="1.0" standalone="no"?>
<!DOCTYPE svg PUBLIC "-//W3C//DTD SVG 20010904//EN"
 "http://www.w3.org/TR/2001/REC-SVG-20010904/DTD/svg10.dtd">
<svg version="1.0" xmlns="http://www.w3.org/2000/svg"
 width="512.000000pt" height="512.000000pt" viewBox="0 0 512.000000 512.000000"
 preserveAspectRatio="xMidYMid meet">

<g transform="translate(0.000000,512.000000) scale(0.100000,-0.100000)"
fill="#000000" stroke="none">
<path d="M4025 4392 c-328 -216 -688 -519 -1180 -991 -77 -74 -262 -252 -410
-395 -448 -432 -702 -662 -950 -861 -507 -405 -925 -621 -1310 -677 l-85 -12
2 -285 3 -285 80 -43 c168 -89 375 -158 581 -193 184 -32 182 -32 320 58 384
253 699 523 1444 1242 567 547 748 715 1000 924 327 273 583 447 855 582 225
111 376 160 618 199 l37 6 0 284 0 285 -92 46 c-225 113 -454 180 -708 209
l-56 6 -149 -99z"/>
</g>
</svg>
